<svg xmlns="http://www.w3.org/2000/svg" viewBox="0 0 200 230">
  <defs>
    <linearGradient id="g1" x1="0%" y1="0%" x2="100%" y2="100%">
      <stop offset="0%" stop-color="#00D4F0"/>
      <stop offset="100%" stop-color="#0078A8"/>
    </linearGradient>
    <linearGradient id="g2" x1="100%" y1="0%" x2="0%" y2="100%">
      <stop offset="0%" stop-color="#0A7FA0"/>
      <stop offset="100%" stop-color="#1A2F5A"/>
    </linearGradient>
    <clipPath id="clip-link2">
      <rect x="0" y="88" width="200" height="200"/>
    </clipPath>
  </defs>
  <circle cx="32" cy="48" r="4.5" fill="#5ECDE8" opacity="0.9"/>
  <circle cx="58" cy="26" r="3" fill="#5ECDE8" opacity="0.7"/>
  <circle cx="18" cy="76" r="3" fill="#5ECDE8" opacity="0.7"/>
  <line x1="32" y1="48" x2="58" y2="26" stroke="#5ECDE8" stroke-width="1.2" opacity="0.5"/>
  <line x1="32" y1="48" x2="18" y2="76" stroke="#5ECDE8" stroke-width="1.2" opacity="0.5"/>
  <line x1="58" y1="26" x2="82" y2="42" stroke="#5ECDE8" stroke-width="1" opacity="0.35"/>
  <circle cx="172" cy="60" r="3" fill="#5ECDE8" opacity="0.6"/>
  <circle cx="188" cy="86" r="2.5" fill="#5ECDE8" opacity="0.5"/>
  <line x1="172" y1="60" x2="188" y2="86" stroke="#5ECDE8" stroke-width="1" opacity="0.4"/>
  <ellipse cx="112" cy="100" rx="52" ry="34" fill="none" stroke="url(#g2)" stroke-width="22" transform="rotate(-35 112 100)"/>
  <ellipse cx="88" cy="80" rx="52" ry="34" fill="none" stroke="url(#g1)" stroke-width="22" transform="rotate(-35 88 80)"/>
  <ellipse cx="112" cy="100" rx="52" ry="34" fill="none" stroke="url(#g2)" stroke-width="22" transform="rotate(-35 112 100)" clip-path="url(#clip-link2)"/>
  <g transform="translate(150,24) rotate(10)">
    <path d="M 0 0 L 16 30 L 9 26 L 13 42 L 5.5 44 L 1.5 28 L -5.5 32 Z" fill="#F97316"/>
  </g>
  <text x="100" y="198" text-anchor="middle" font-family="'Outfit','Arial Black',Arial,sans-serif" font-weight="900" font-size="44" fill="#1E2D50" letter-spacing="-1">MISGRO</text>
</svg>
